<?xml version="1.0" encoding="UTF-8"?><!DOCTYPE svg PUBLIC "-//W3c//DTD SVG 20000802//EN" "https://www.w3.org/TR/2000/CR-SVG-20000802/DTD/svg-20000802.dtd"><svg width="600" height="400" xmlns="http://www.w3.org/2000/svg"><rect x="106" y="163" width="458" height="68" fill="#456a13"/><rect x="145" y="97" width="224" height="155" fill="#d1995b"/><rect x="75" y="161" width="460" height="25" fill="#46737f"/><rect x="206" y="170" width="326" height="142" fill="#e52b9c"/><rect x="142" y="386" width="270" height="9" fill="#e569f3"/><rect x="293" y="227" width="96" height="9" fill="#fb2640"/><rect x="581" y="213" width="16" height="70" fill="#a850c3"/><rect x="357" y="117" width="15" height="45" fill="#18e28a"/><rect x="186" y="196" width="343" height="0" fill="#4063d9"/><rect x="591" y="290" width="7" height="2" fill="#cf362f"/><rect x="598" y="380" width="1" height="14" fill="#9391ae"/><rect x="475" y="9" width="66" height="138" fill="#3afdd7"/><rect x="206" y="292" width="373" height="42" fill="#0f401d"/><rect x="437" y="293" width="4" height="37" fill="#9986d2"/><rect x="56" y="132" width="382" height="249" fill="#523d41"/><rect x="425" y="343" width="124" height="10" fill="#976adc"/><rect x="472" y="3" width="19" height="47" fill="#553ca0"/></svg>