<?xml version="1.0" encoding="UTF-8" standalone="no"?>
<!DOCTYPE svg PUBLIC "-//W3C//DTD SVG 20000802//EN" "http://www.w3.org/TR/2000/CR-SVG-20000802/DTD/svg-20000802.dtd">
<svg height="400" width="600" xmlns="http://www.w3.org/2000/svg">
<rect fill="#8b90a6" height="83" width="4" x="574" y="286"/>
<rect fill="#593f0c" height="253" width="1" x="584" y="114"/>
<rect fill="#7b7088" height="11" width="9" x="195" y="385"/>
<rect fill="#64ba38" height="0" width="38" x="246" y="398"/>
<rect fill="#bed8ed" height="27" width="65" x="482" y="323"/>
<rect fill="#2ef16b" height="50" width="228" x="18" y="296"/>
<rect fill="#9a727c" height="54" width="284" x="54" y="345"/>
<rect fill="#6c16f1" height="280" width="127" x="35" y="113"/>
<rect fill="#8330ad" height="30" width="6" x="278" y="256"/>
<rect fill="#fcddd4" height="50" width="147" x="279" y="311"/>
<rect fill="#cc9529" height="248" width="359" x="87" y="140"/>
<rect fill="#f4b161" height="168" width="64" x="364" y="225"/>
<rect fill="#0582c3" height="180" width="7" x="239" y="218"/>
<rect fill="#c98aa9" height="69" width="226" x="334" y="327"/>
<rect fill="#21439c" height="82" width="338" x="227" y="229"/>
<rect fill="#c46642" height="10" width="128" x="26" y="280"/>
<rect fill="#7f4f6d" height="28" width="296" x="282" y="335"/>
<rect fill="#188bdf" height="22" width="189" x="169" y="360"/>
<rect fill="#fc7e0d" height="284" width="55" x="40" y="106"/>
</svg>
